<?xml version="1.0" encoding="utf-8"?>
<!-- Generator: Adobe Illustrator 25.0.1, SVG Export Plug-In . SVG Version: 6.00 Build 0)  -->
<svg version="1.0"
	 id="svg3476" xmlns:cc="http://creativecommons.org/ns#" xmlns:dc="http://purl.org/dc/elements/1.1/" xmlns:inkscape="http://www.inkscape.org/namespaces/inkscape" xmlns:rdf="http://www.w3.org/1999/02/22-rdf-syntax-ns#" xmlns:sodipodi="http://sodipodi.sourceforge.net/DTD/sodipodi-0.dtd" xmlns:svg="http://www.w3.org/2000/svg"
	 xmlns="http://www.w3.org/2000/svg" xmlns:xlink="http://www.w3.org/1999/xlink" x="0px" y="0px" width="409.6px" height="409.6px"
	 viewBox="0 0 409.6 409.6" enable-background="new 0 0 409.6 409.6" xml:space="preserve">
<sodipodi:namedview  bordercolor="#666666" borderopacity="1.0" fit-margin-bottom="0" fit-margin-left="0" fit-margin-right="0" fit-margin-top="0" id="base" inkscape:current-layer="layer1" inkscape:cx="181.367" inkscape:cy="256" inkscape:document-units="px" inkscape:pageopacity="0.0" inkscape:pageshadow="2" inkscape:window-height="704" inkscape:window-maximized="1" inkscape:window-width="1366" inkscape:window-x="0" inkscape:window-y="27" inkscape:zoom="0.35" pagecolor="#ffffff" showgrid="false">
	</sodipodi:namedview>
<g id="layer1" transform="translate(-193.633,-276.3622)" inkscape:groupmode="layer" inkscape:label="Calque 1">
	<g id="g3013" transform="translate(119,276.3622)">
		<polygon id="polygon2989" fill="#264DE4" points="424.5,50.1 398.1,346.2 279.3,379.2 160.7,346.2 134.3,50.1 		"/>
		<polygon id="polygon2991" fill="#2965F1" points="375.5,327.3 398,74.2 279.4,74.2 279.4,354 		"/>
		<polygon id="polygon2993" fill="#EBEBEB" points="194.9,184.2 198.1,220.4 279.4,220.4 279.4,184.2 		"/>
		<polygon id="polygon2995" fill="#EBEBEB" points="279.4,110.6 279.3,110.6 188.3,110.6 191.6,146.9 279.4,146.9 		"/>
		<polygon id="polygon2997" fill="#EBEBEB" points="279.4,316.2 279.4,278.5 279.3,278.5 238.8,267.5 236.2,238.7 216.6,238.7 
			199.8,238.7 204.8,295.7 279.3,316.3 		"/>
		<polygon id="polygon3005" fill="#FFFFFF" points="324,220.4 319.8,267.5 279.3,278.5 279.3,316.2 353.8,295.7 354.3,289.5 
			362.9,193.9 363.8,184.2 370.3,110.6 279.3,110.6 279.3,146.9 330.5,146.9 327.2,184.2 279.3,184.2 279.3,220.4 		"/>
	</g>
</g>
</svg>
